<svg xmlns="http://www.w3.org/2000/svg" width="1200" height="800" viewBox="0 0 1200 800" role="img" aria-label="Donacion de alimentos - Fundacion Despierta">
  <defs>
    <linearGradient id="bg" x1="0" y1="0" x2="1" y2="1">
      <stop offset="0%" stop-color="#fff5ee"/>
      <stop offset="55%" stop-color="#fde7d9"/>
      <stop offset="100%" stop-color="#ffd8c2"/>
    </linearGradient>
    <linearGradient id="panel" x1="0" y1="0" x2="0" y2="1">
      <stop offset="0%" stop-color="#ffffff"/>
      <stop offset="100%" stop-color="#fef3ee"/>
    </linearGradient>
    <filter id="shadow" x="-20%" y="-20%" width="140%" height="140%">
      <feDropShadow dx="0" dy="16" stdDeviation="18" flood-color="#9a4d2f" flood-opacity="0.16"/>
    </filter>
  </defs>

  <rect width="1200" height="800" fill="url(#bg)"/>
  <circle cx="990" cy="145" r="108" fill="#ffd0ba" opacity="0.65"/>
  <circle cx="165" cy="690" r="150" fill="#ffc7b0" opacity="0.4"/>

  <rect x="110" y="125" width="980" height="560" rx="42" fill="url(#panel)" filter="url(#shadow)"/>

  <rect x="160" y="185" width="410" height="430" rx="30" fill="#ffe7da"/>
  <rect x="605" y="185" width="430" height="120" rx="28" fill="#fff1e7"/>
  <rect x="605" y="332" width="430" height="130" rx="28" fill="#fff7f1"/>
  <rect x="605" y="490" width="430" height="125" rx="28" fill="#fef2ec"/>

  <g transform="translate(215 255)">
    <rect x="0" y="120" width="290" height="125" rx="24" fill="#f8b88e"/>
    <rect x="25" y="85" width="240" height="62" rx="18" fill="#d47a4f"/>
    <rect x="55" y="40" width="180" height="52" rx="16" fill="#efc08d"/>
    <circle cx="70" cy="180" r="18" fill="#ffffff" opacity="0.82"/>
    <circle cx="225" cy="180" r="18" fill="#ffffff" opacity="0.82"/>
    <path d="M34 160h220" stroke="#ffffff" stroke-opacity="0.35" stroke-width="8" stroke-linecap="round"/>
  </g>

  <g transform="translate(640 228)">
    <circle cx="64" cy="64" r="64" fill="#d1fae5"/>
    <path d="M64 28c-10 0-18 8-18 18 0 6 3 12 7 16L64 72l11-10c4-4 7-10 7-16 0-10-8-18-18-18Z" fill="#16a34a"/>
    <path d="M44 69h40" stroke="#ffffff" stroke-width="8" stroke-linecap="round"/>
    <rect x="150" y="24" width="188" height="26" rx="13" fill="#c4b5fd"/>
    <rect x="150" y="68" width="250" height="22" rx="11" fill="#ddd6fe"/>
    <rect x="150" y="108" width="216" height="22" rx="11" fill="#ede9fe"/>
  </g>

  <text x="605" y="536" font-family="Georgia, serif" font-size="52" fill="#1f2937" font-weight="700">Donacion de Alimentos</text>
  <text x="605" y="588" font-family="Arial, sans-serif" font-size="29" fill="#6b7280">Fundacion Despierta</text>
  <text x="605" y="628" font-family="Arial, sans-serif" font-size="20" fill="#9ca3af">Entrega verificada en CABA</text>
</svg>
